<?xml version="1.0" encoding="UTF-8"?>
<svg xmlns="http://www.w3.org/2000/svg" width="1024" height="1024" viewBox="0 0 1024 1024">
  <rect width="1024" height="1024" fill="#E8501F"/>

  <rect x="170" y="210" width="744" height="664" fill="#111111"
        transform="rotate(-4 512 512)"/>

  <g transform="rotate(-4 512 512)">
    <rect x="140" y="180" width="744" height="664" fill="#FFFFFF"/>

    <g fill="none" stroke="#111111" stroke-width="8">
      <line x1="200" y1="512" x2="824" y2="512"/>
      <circle cx="415" cy="512" r="155"/>
      <circle cx="609" cy="512" r="155"/>
      <circle cx="512" cy="512" r="205" stroke-dasharray="26 20"/>
    </g>

    <g fill="#111111">
      <rect x="501" y="501" width="22" height="22"/>
      <rect x="708" y="503" width="18" height="18"/>
    </g>

    <g font-family="Helvetica Neue, Helvetica, Arial, sans-serif" font-weight="700">
      <g fill="#111111">
        <rect x="269" y="486" width="76"  height="52" rx="6"/>
        <rect x="370" y="486" width="90"  height="52" rx="6"/>
        <rect x="551" y="486" width="116" height="52" rx="6"/>
        <rect x="456" y="365" width="112" height="52" rx="6"/>
        <rect x="453" y="607" width="118" height="52" rx="6"/>
      </g>
      <g fill="#FFFFFF" font-size="34" text-anchor="middle" letter-spacing="1.5">
        <text x="307" y="524">MD</text>
        <text x="415" y="524">TXT</text>
        <text x="609" y="524">XLSX</text>
        <text x="512" y="403">JSON</text>
        <text x="512" y="645">DOCX</text>
      </g>

      <rect x="186" y="218" width="356" height="126" rx="32" fill="#E8501F"/>
      <text x="364" y="312" font-size="104" fill="#FFFFFF" text-anchor="middle"
            letter-spacing="6">PDF</text>

      <rect x="686" y="238" width="152" height="92" rx="24" fill="#E8501F"/>
      <text x="762" y="304" font-size="62" fill="#FFFFFF" text-anchor="middle">1.2</text>

      <rect x="470" y="820" width="452" height="118" rx="30" fill="#FFFFFF"/>
      <text x="696" y="904" font-size="80" fill="#111111" text-anchor="middle"
            letter-spacing="8">TRAIL</text>
    </g>
  </g>
</svg>
